<svg width="30" height="30" viewBox="0 0 30 30" fill="none" xmlns="http://www.w3.org/2000/svg">
<path fill-rule="evenodd" clip-rule="evenodd" d="M20.1448 7.04688H9.8552C8.21303 7.04688 6.87671 8.37325 6.87671 10.0034V20.217C6.87671 21.8474 8.21303 23.1738 9.8552 23.1738H20.1448C21.7872 23.1738 23.1235 21.8474 23.1235 20.217V10.0034C23.1235 8.37334 21.7872 7.04688 20.1448 7.04688ZM14.9998 20.4191C12.051 20.4191 9.65155 18.0374 9.65155 15.11C9.65155 12.183 12.051 9.80124 14.9998 9.80124C17.9489 9.80124 20.3484 12.183 20.3484 15.11C20.3484 18.0374 17.9489 20.4191 14.9998 20.4191ZM20.5205 10.899C19.8223 10.899 19.2546 10.3355 19.2546 9.64294C19.2546 8.95026 19.8223 8.38675 20.5205 8.38675C21.2182 8.38675 21.7859 8.95026 21.7859 9.64294C21.7859 10.3356 21.2182 10.899 20.5205 10.899Z" fill="#AF31DB"/>
<path fill-rule="evenodd" clip-rule="evenodd" d="M14.9997 12.0449C13.2974 12.0449 11.9111 13.4204 11.9111 15.1103C11.9111 16.8009 13.2974 18.1768 14.9997 18.1768C16.7027 18.1768 18.088 16.8009 18.088 15.1103C18.088 13.4204 16.7027 12.0449 14.9997 12.0449Z" fill="#AF31DB"/>
<path fill-rule="evenodd" clip-rule="evenodd" d="M0 0.220215V30H30V0.220215H0ZM25.3833 20.2171C25.3833 23.0849 23.0337 25.4172 20.1448 25.4172H9.85525C6.96659 25.4172 4.6167 23.0849 4.6167 20.2171V10.0031C4.6167 7.13567 6.96659 4.80303 9.85525 4.80303H20.1448C23.0337 4.80303 25.3833 7.13567 25.3833 10.0031V20.2171Z" fill="#AF31DB"/>
</svg>
