<svg width="31" height="31" viewBox="0 0 31 31" fill="none" xmlns="http://www.w3.org/2000/svg">
<path d="M28.7642 0.212891H2.23575C1.0009 0.212891 0 1.20644 0 2.43223V28.766C0 29.9918 1.0009 30.9854 2.23575 30.9854H28.7642C29.9991 30.9854 31 29.9918 31 28.766V2.43223C31 1.20644 29.9991 0.212891 28.7642 0.212891V0.212891ZM23.265 11.9905V14.0708C22.2767 14.0712 21.3165 13.879 20.411 13.4997C19.8287 13.2557 19.2862 12.9412 18.79 12.5613L18.8049 18.9647C18.7987 20.4067 18.224 21.7614 17.1839 22.7818C16.3375 23.6125 15.2649 24.1407 14.1024 24.3116C13.8292 24.3518 13.5512 24.3724 13.2701 24.3724C12.0257 24.3724 10.8442 23.9722 9.87774 23.2339C9.69586 23.0949 9.52197 22.9442 9.35631 22.7818C8.22911 21.676 7.64786 20.177 7.7457 18.6002C7.82042 17.3999 8.30449 16.2552 9.11152 15.358C10.1793 14.1707 11.673 13.5117 13.2701 13.5117C13.5512 13.5117 13.8292 13.5326 14.1024 13.5728V14.342V16.4817C13.8434 16.3969 13.5668 16.3503 13.2788 16.3503C11.8196 16.3503 10.6391 17.532 10.6609 18.9815C10.6747 19.9089 11.1851 20.7197 11.9378 21.1665C12.2916 21.3766 12.6986 21.5067 13.1329 21.5303C13.4731 21.5488 13.7998 21.5018 14.1024 21.4027C15.1449 21.0608 15.8969 20.0888 15.8969 18.9424L15.9004 14.6543V6.82584H18.7865C18.7893 7.10971 18.8183 7.38672 18.8723 7.65508C19.0901 8.74143 19.707 9.68396 20.5655 10.3265C21.3141 10.887 22.2463 11.2193 23.2567 11.2193C23.2574 11.2193 23.2657 11.2193 23.265 11.2186V11.9905H23.265Z" fill="#AF31DB"/>
</svg>
