<svg width="30" height="30" viewBox="0 0 30 30" fill="none" xmlns="http://www.w3.org/2000/svg">
<path d="M28.4043 0.220215H1.59574C0.714255 0.220215 0 0.929544 0 1.80425V28.416C0 29.2907 0.714255 30 1.59574 30H28.4043C29.2857 30 30 29.2907 30 28.416V1.80425C30 0.929544 29.2857 0.220215 28.4043 0.220215ZM23.8944 16.9929C24.712 17.7849 25.5766 18.5307 26.311 19.406C26.6359 19.7925 26.9422 20.1917 27.1755 20.6412C27.5078 21.2824 27.2078 21.9867 26.6288 22.0244L23.0365 22.0235C22.109 22.0992 21.3705 21.7285 20.7476 21.099C20.2513 20.5969 19.7898 20.0608 19.3114 19.5422C19.1164 19.329 18.9096 19.1285 18.6651 18.9701C18.1755 18.6545 17.7501 18.7508 17.4689 19.2581C17.183 19.7744 17.1169 20.3472 17.0907 20.9229C17.0508 21.764 16.7955 21.9835 15.9456 22.0225C14.1297 22.1074 12.406 21.8337 10.8048 20.9254C9.39128 20.1239 8.29819 18.9916 7.34585 17.7111C5.48968 15.2137 4.06819 12.4724 2.7916 9.65249C2.50404 9.01729 2.71436 8.67736 3.41936 8.66437C4.59255 8.64124 5.76543 8.64441 6.93702 8.6631C7.41447 8.67039 7.73011 8.94157 7.91298 9.38827C8.54649 10.9359 9.32394 12.4084 10.2973 13.7738C10.5568 14.1372 10.8217 14.4999 11.1983 14.7569C11.6145 15.0407 11.9317 14.9473 12.128 14.4863C12.2534 14.1923 12.3077 13.8799 12.3345 13.5657C12.4277 12.4898 12.4388 11.4139 12.278 10.3422C12.1774 9.67181 11.797 9.23874 11.1236 9.11201C10.7809 9.04739 10.831 8.9213 10.9976 8.7271C11.2867 8.39065 11.5593 8.18282 12.1005 8.18282L16.1604 8.18219C16.8006 8.30638 16.943 8.5915 17.0301 9.23113L17.0339 13.7086C17.0272 13.9563 17.1587 14.69 17.6068 14.8522C17.9652 14.9698 18.203 14.6843 18.4174 14.4581C19.3902 13.4333 20.0834 12.2227 20.7048 10.9704C20.9783 10.4182 21.2154 9.84606 21.4452 9.27359C21.6153 8.85002 21.8815 8.64156 22.3628 8.64916L26.2711 8.65328C26.386 8.65328 26.5037 8.65455 26.6177 8.67324C27.2757 8.7857 27.4561 9.06703 27.2528 9.70508C26.9323 10.7071 26.3084 11.5422 25.6982 12.3792C25.0462 13.2742 24.3501 14.1397 23.7029 15.0391C23.1099 15.8641 23.1578 16.2785 23.8944 16.9929Z" fill="#AF31DB"/>
</svg>
