<svg width="180" height="180" viewBox="0 0 180 180" fill="none" xmlns="http://www.w3.org/2000/svg">
<circle cx="90" cy="90" r="90" fill="#AF31DB"/>
<path d="M86.6594 100.57C86.2557 100.437 83.7226 97.8255 85.3066 92.9157H85.285C89.4144 88.5814 92.9491 81.6081 92.9491 74.7368C92.9491 64.181 85.6795 58.6462 77.6733 58.6462C69.661 58.6462 62.7118 64.181 62.7118 74.7368C62.7118 81.6328 65.9507 88.634 70.1017 92.9652C71.7195 97.2903 68.8259 100.341 68.2188 100.57C59.8367 103.657 50 109.294 50 114.854C50 116.354 50 115.444 50 116.939C50 124.515 64.4129 126.239 77.7534 126.239C91.1093 126.239 105.344 124.515 105.344 116.939C105.344 115.448 105.344 116.357 105.344 114.854C105.344 109.124 95.4576 103.537 86.6594 100.57Z" fill="white"/>
<path d="M112.432 86.6514C112.056 86.5245 109.67 85.9398 111.159 81.3208H111.14C115.023 77.2495 117.701 70.6845 117.701 64.2341C117.701 54.3062 111.507 49.1025 103.982 49.1025C98.4408 49.1025 93.6673 51.9426 91.5255 57.3876C96.0217 61.1156 99.1157 66.9194 99.1157 74.7343C99.1157 83.0781 95.2204 90.6918 91.1465 95.6047C97.6365 98.0704 107.778 103.03 110.681 110.609C120.906 110.04 130 107.909 130 102.037C130 100.635 130 101.489 130 100.078C129.997 94.6951 120.703 89.4388 112.432 86.6514Z" fill="white"/>
</svg>
