<svg width="180" height="180" viewBox="0 0 180 180" fill="none" xmlns="http://www.w3.org/2000/svg">
<circle cx="90" cy="90" r="90" fill="#AF31DB"/>
<path d="M126.616 63.878H119.462C121.102 62.6714 122.368 60.9932 123.075 59.0297C124.108 56.1631 123.838 52.9997 122.335 50.3509C120.497 47.1123 117.047 45.1008 113.329 45.1008C110.393 45.1008 107.683 46.3016 105.698 48.4816L96.8736 58.1705C95.5327 56.6305 93.5674 55.6517 91.3747 55.6517H88.6248C86.4321 55.6517 84.4668 56.6305 83.1259 58.171L74.3019 48.482C72.3163 46.3016 69.6066 45.1008 66.6708 45.1008C62.9531 45.1008 59.5021 47.1123 57.665 50.3509C56.1617 53.0002 55.8919 56.1635 56.9246 59.0302C57.6316 60.9937 58.8976 62.6714 60.538 63.878H53.3838C51.5146 63.878 50 65.399 50 67.2751V85.7103C50 87.5099 51.395 88.9788 53.1582 89.0961V132.073C53.1582 133.949 54.6728 135.47 56.542 135.47H79.3262H100.674H123.458C125.327 135.47 126.842 133.949 126.842 132.073V89.0961C128.605 88.9792 130 87.5103 130 85.7103V67.2751C130 65.399 128.485 63.878 126.616 63.878ZM97.29 70.7052V128.676H82.71V70.7052H84.6987H95.3013H97.29ZM63.2888 56.7197C62.9261 55.7119 63.0168 54.6443 63.5451 53.7135C64.1916 52.5748 65.3601 51.895 66.6708 51.895C67.6832 51.895 68.6194 52.3108 69.3075 53.0663L79.1543 63.878H78.7036L65.4008 58.8662C64.4019 58.4894 63.6516 57.7271 63.2888 56.7197ZM116.711 56.7193C116.348 57.7271 115.598 58.4894 114.598 58.8658L101.296 63.878H100.846L110.692 53.0663C111.38 52.3108 112.317 51.895 113.329 51.895C114.64 51.895 115.808 52.5748 116.455 53.714C116.982 54.6443 117.074 55.7119 116.711 56.7193Z" fill="white"/>
</svg>
