<svg width="180" height="180" viewBox="0 0 180 180" fill="none" xmlns="http://www.w3.org/2000/svg">
<circle cx="90.0005" cy="90" r="90" fill="#AF31DB"/>
<path d="M40 116.551V130.241H53.6364C53.6364 122.483 47.7273 116.551 40 116.551ZM40 98.2979V107.424C52.7273 107.424 62.7273 117.464 62.7273 130.241H71.8182C71.8182 112.444 57.7273 98.2979 40 98.2979ZM121.818 66.3551H58.1818V73.6563C76.3636 79.5885 90.4545 93.7346 96.3636 111.988H121.818V66.3551ZM40 80.0449V89.1714C62.7273 89.1714 80.9091 107.424 80.9091 130.241H90C90 102.405 67.7273 80.0449 40 80.0449ZM130.909 48.1021H49.0909C44.0909 48.1021 40 52.209 40 57.2286V70.9183H49.0909V57.2286H130.909V121.114H99.0909V130.241H130.909C135.909 130.241 140 126.134 140 121.114V57.2286C140 52.209 135.909 48.1021 130.909 48.1021Z" fill="white"/>
</svg>
