<svg width="180" height="180" viewBox="0 0 180 180" fill="none" xmlns="http://www.w3.org/2000/svg">
<circle cx="89.9999" cy="90" r="90" fill="#AF31DB"/>
<path d="M123.25 37H60.75C57.2984 37 54.5 39.798 54.5 43.25V130.75C54.5 134.202 57.2984 137 60.75 137H114.411C116.068 137 117.658 136.342 118.83 135.17L127.669 126.33C128.842 125.158 129.5 123.569 129.5 121.911V43.25C129.5 39.798 126.702 37 123.25 37ZM98.25 115.125H88.875V124.5H76.375V115.125H67V102.625H76.375V93.25H88.875V102.625H98.25V115.125ZM110.75 124.5C107.298 124.5 104.5 121.702 104.5 118.25C104.5 114.798 107.298 112 110.75 112C114.202 112 117 114.798 117 118.25C117 121.702 114.202 124.5 110.75 124.5ZM110.75 105.75C107.298 105.75 104.5 102.952 104.5 99.5C104.5 96.048 107.298 93.25 110.75 93.25C114.202 93.25 117 96.048 117 99.5C117 102.952 114.202 105.75 110.75 105.75ZM117 80.75H67V49.5H117V80.75Z" fill="white"/>
</svg>
