<svg width="180" height="180" viewBox="0 0 180 180" fill="none" xmlns="http://www.w3.org/2000/svg">
<circle cx="90" cy="90" r="90" fill="#AF31DB"/>
<path d="M71.4024 109.451H112.597C116.438 109.451 109.357 92.594 109.357 92.594C108.938 91.591 107.929 90.948 106.964 90.5528L100.45 87.5535L97.3205 84.9146L92.2916 89.9159H92.2877L94.4575 104.423C94.4646 104.473 94.4527 104.523 94.4228 104.565L92.1541 107.67C92.1175 107.72 92.0601 107.749 91.9985 107.749C91.9372 107.749 91.8797 107.72 91.8438 107.67L89.5745 104.565C89.5447 104.523 89.5321 104.473 89.5401 104.423L91.7097 89.9159H91.7063L86.6779 84.9146L83.5482 87.5535L77.0342 90.5528C76.0706 90.948 75.1232 91.5486 74.6413 92.594C74.6422 92.594 67.5619 109.451 71.4024 109.451Z" fill="white"/>
<path d="M92 86.2555C96.9687 86.2555 103.634 80.0479 103.747 69.6388C103.819 62.4154 100.379 58.0928 92 58.0928C83.6206 58.0928 80.1794 62.4154 80.2529 69.6388C80.3657 80.0479 86.1849 86.2555 92 86.2555ZM89.6385 72.5397C95.7133 73.1866 101.01 64.6903 100.924 72.2976C100.873 76.8511 96.6485 83.7278 92.0009 83.7278C87.1229 83.7278 83.7565 78.0127 83.0773 72.3001C82.3412 66.1044 93.7131 67.5163 89.6385 72.5397Z" fill="white"/>
<path d="M137.423 46.7715H46.5767C44.049 46.7715 42 48.8205 42 51.3481V116.196C42 118.724 44.049 120.773 46.5767 120.773H137.423C139.951 120.773 142 118.724 142 116.196V51.3481C142 48.8205 139.951 46.7715 137.423 46.7715ZM135.135 113.908H48.865V53.6365H135.135V113.908Z" fill="white"/>
<path d="M42 128.051C42 129.447 43.1318 130.579 44.5279 130.579H68.868V125.523H44.5279C43.1318 125.523 42 126.655 42 128.051Z" fill="white"/>
<path d="M139.472 125.523H78.6482V130.58H139.472C140.868 130.58 142 129.448 142 128.051C142 126.655 140.868 125.523 139.472 125.523Z" fill="white"/>
<path d="M73.7588 122.873C72.0823 122.873 70.7185 124.237 70.7185 125.913V130.189C70.7185 131.865 72.0823 133.229 73.7588 133.229C75.435 133.229 76.7986 131.865 76.7986 130.189V125.913C76.7986 124.237 75.435 122.873 73.7588 122.873Z" fill="white"/>
</svg>
