<svg width="180" height="180" viewBox="0 0 180 180" fill="none" xmlns="http://www.w3.org/2000/svg">
<circle cx="90" cy="90" r="90" fill="#AF31DB"/>
<path d="M60.5562 50.2989C61.5215 50.8421 68.019 53.9812 71.158 55.4927C71.1703 56.711 71.1973 58.818 71.2387 58.8537C71.5846 61.8708 72.1785 65.2225 72.3505 66.1691C72.0651 66.3273 70.5982 67.2866 70.5982 70.2702C70.5995 70.287 70.601 70.3025 70.6023 70.3195C70.6002 70.3978 70.5982 70.4767 70.5982 70.5577C71.2296 78.8506 74.5277 75.2766 75.2078 78.9091C76.3391 84.9487 81.6868 89.3184 85.0155 90.8269C86.9394 91.6984 88.9193 92.1429 91.0002 92.1856C93.081 92.1431 95.0609 91.6984 96.9848 90.8269C100.314 89.3184 105.661 84.9485 106.793 78.9091C107.473 75.2764 110.771 78.8506 111.402 70.5577C111.402 70.4765 111.4 70.3978 111.398 70.3195C111.399 70.3027 111.401 70.2872 111.402 70.2702C111.402 67.2863 109.935 66.3273 109.65 66.1691C109.822 65.2225 110.416 61.871 110.762 58.8537C110.803 58.818 110.83 56.7113 110.842 55.4927C112.566 54.6623 115.303 53.3416 117.58 52.2293V60.2458C116.947 60.6192 116.503 61.2782 116.503 62.0639C116.503 62.7595 116.856 63.3489 117.37 63.7384C117.37 63.7384 116.456 68.8806 116.16 70.393C115.864 71.905 121.377 71.6017 121.128 70.393C120.881 69.1839 119.919 63.7384 119.919 63.7384C120.433 63.3489 120.786 62.7595 120.786 62.0639C120.786 61.278 120.343 60.6194 119.711 60.2458V51.1819C120.56 50.7609 121.192 50.4408 121.444 50.2989C122.127 49.9146 122.495 49.4229 122.417 48.912C122.51 48.3793 122.125 47.8068 121.092 47.3007C113.714 43.6895 94.907 34.4857 93.0474 33.5986C92.236 33.2117 91.5682 33.0407 91.0002 33C90.4321 33.0407 89.7643 33.2117 88.953 33.5986C87.0933 34.4857 68.2859 43.6898 60.9089 47.3007C59.8748 47.8068 59.4898 48.3793 59.5834 48.912C59.5054 49.4229 59.8733 49.9146 60.5562 50.2989Z" fill="white"/>
<path d="M116.038 102.171C112.567 100.919 106.527 97.3117 105.491 96.7551C105.223 96.5993 104.912 96.5083 104.58 96.5083C103.854 96.5083 103.228 96.9345 102.937 97.5512C100.076 102.342 94.7706 116.272 91.069 116.53C91.0463 116.529 91.023 116.524 91.0002 116.522C90.9773 116.524 90.9541 116.529 90.9314 116.53C87.2298 116.272 81.9246 102.342 79.063 97.5512C78.7718 96.9345 78.1468 96.5083 77.4206 96.5083C77.0878 96.5083 76.7772 96.5993 76.5088 96.7551C75.4739 97.3117 69.4327 100.919 65.9622 102.171C54.3127 106.371 49.0732 110.655 49.0732 113.576C49.0732 113.661 49.0732 113.758 49.0732 113.864C49.0732 117.421 49.0732 132.712 49.0732 132.712C49.0732 132.899 49.0732 133 49.0732 133H90.9314H91.0002H91.069H132.927C132.927 133 132.927 132.899 132.927 132.712C132.927 132.712 132.927 117.421 132.927 113.864C132.927 113.758 132.927 113.661 132.927 113.576C132.927 110.655 127.688 106.371 116.038 102.171Z" fill="white"/>
</svg>
