<svg width="75" height="207" viewBox="0 0 75 207" fill="none" xmlns="http://www.w3.org/2000/svg">
<path opacity="0.5" d="M73.5938 206V206.5H74.0938V206H73.5938ZM56.7188 206H56.2188V206.5H56.7188V206ZM56.7188 21.5H57.2188V20.7811L56.5447 21.0313L56.7188 21.5ZM1.03125 42.1719H0.53125V42.8908L1.20525 42.6406L1.03125 42.1719ZM1.03125 26.4219L0.857347 25.9531L0.53125 26.0741V26.4219H1.03125ZM70.7812 0.546875V0.046875H70.6915L70.6073 0.0780919L70.7812 0.546875ZM73.5938 0.546875H74.0938V0.046875H73.5938V0.546875ZM73.5938 205.5H56.7188V206.5H73.5938V205.5ZM57.2188 206V21.5H56.2188V206H57.2188ZM56.5447 21.0313L0.857246 41.7031L1.20525 42.6406L56.8928 21.9687L56.5447 21.0313ZM1.53125 42.1719V26.4219H0.53125V42.1719H1.53125ZM1.20515 26.8907L70.9552 1.01566L70.6073 0.0780919L0.857347 25.9531L1.20515 26.8907ZM70.7812 1.04688H73.5938V0.046875H70.7812V1.04688ZM73.0938 0.546875V206H74.0938V0.546875H73.0938Z" fill="#AF31DB"/>
</svg>
