<svg width="135" height="210" viewBox="0 0 135 210" fill="none" xmlns="http://www.w3.org/2000/svg">
<path opacity="0.5" d="M133.516 209V209.5H134.016V209H133.516ZM5.26562 209H4.76562V209.5H5.26562V209ZM5.26562 196.062L4.89057 195.732L4.76562 195.874V196.062H5.26562ZM75.4375 116.469L75.8126 116.799L75.8153 116.796L75.4375 116.469ZM94.9844 27.1719L94.6308 27.5254L94.633 27.5276L94.9844 27.1719ZM30.1562 29L29.797 28.6522L29.7951 28.6542L30.1562 29ZM17.5 63.3125V63.8125H18V63.3125H17.5ZM0.765625 63.3125H0.265625V63.8125H0.765625V63.3125ZM8.5 31.8125L8.0627 31.57L8.06089 31.5734L8.5 31.8125ZM30.7188 9.59375L30.9627 10.0302L30.9641 10.0294L30.7188 9.59375ZM107.5 16.2031L107.158 16.5679L107.16 16.5694L107.5 16.2031ZM114.391 87.7812L113.949 87.5475L113.947 87.5503L114.391 87.7812ZM83.0312 130.25L83.4058 130.581L83.4059 130.581L83.0312 130.25ZM25.9375 194.797L25.563 194.466L24.8277 195.297H25.9375V194.797ZM133.516 194.797H134.016V194.297H133.516V194.797ZM133.516 208.5H5.26562V209.5H133.516V208.5ZM5.76562 209V196.062H4.76562V209H5.76562ZM5.64068 196.393L75.8126 116.799L75.0624 116.138L4.89057 195.732L5.64068 196.393ZM75.8153 116.796C87.449 103.38 95.542 92.2822 100.069 83.5106L99.1807 83.0519C94.708 91.7178 86.676 102.745 75.0597 116.141L75.8153 116.796ZM100.069 83.5106C104.599 74.7343 106.875 66.1717 106.875 57.8281H105.875C105.875 65.9846 103.651 74.3907 99.1807 83.0519L100.069 83.5106ZM106.875 57.8281C106.875 44.7873 103.044 34.4294 95.3357 26.8161L94.633 27.5276C102.112 34.9143 105.875 44.994 105.875 57.8281H106.875ZM95.3379 26.8183C87.629 19.1094 77.0365 15.2812 63.625 15.2812V16.2812C76.8385 16.2812 87.1522 20.0468 94.6308 27.5254L95.3379 26.8183ZM63.625 15.2812C49.7267 15.2812 38.4345 19.73 29.797 28.6522L30.5155 29.3478C38.9405 20.645 49.9608 16.2812 63.625 16.2812V15.2812ZM29.7951 28.6542C21.2549 37.574 17 49.1423 17 63.3125H18C18 49.3577 22.1826 38.051 30.5174 29.3458L29.7951 28.6542ZM17.5 62.8125H0.765625V63.8125H17.5V62.8125ZM1.26562 63.3125C1.26562 51.8588 3.82558 41.4419 8.93911 32.0516L8.06089 31.5734C2.86192 41.1206 0.265625 51.7037 0.265625 63.3125H1.26562ZM8.93728 32.055C14.1416 22.6686 21.4804 15.3291 30.9627 10.0302L30.4748 9.15728C20.8321 14.5459 13.3584 22.0189 8.06272 31.57L8.93728 32.055ZM30.9641 10.0294C40.5376 4.63853 51.4202 1.9375 63.625 1.9375V0.9375C51.2673 0.9375 40.2124 3.67397 30.4734 9.15808L30.9641 10.0294ZM63.625 1.9375C82.2876 1.9375 96.7761 6.83481 107.158 16.5679L107.842 15.8384C97.2239 5.88394 82.4624 0.9375 63.625 0.9375V1.9375ZM107.16 16.5694C117.634 26.302 122.891 39.5658 122.891 56.4219H123.891C123.891 39.3404 118.554 25.7917 107.84 15.8368L107.16 16.5694ZM122.891 56.4219C122.891 65.8798 119.923 76.2522 113.949 87.5475L114.833 88.015C120.858 76.6228 123.891 66.0889 123.891 56.4219H122.891ZM113.947 87.5503C108.069 98.8405 97.6469 112.961 82.6566 129.919L83.4059 130.581C98.4156 113.601 108.9 99.4095 114.834 88.0122L113.947 87.5503ZM82.6567 129.919L25.563 194.466L26.312 195.128L83.4058 130.581L82.6567 129.919ZM25.9375 195.297H133.516V194.297H25.9375V195.297ZM133.016 194.797V209H134.016V194.797H133.016Z" fill="#AF31DB"/>
</svg>
