<svg width="130" height="213" viewBox="0 0 130 213" fill="none" xmlns="http://www.w3.org/2000/svg">
<path opacity="0.5" d="M43.6719 97.4844V96.9844H43.1719V97.4844H43.6719ZM86.4219 92.4219L86.6337 92.8748L86.6384 92.8725L86.4219 92.4219ZM102.875 78.3594L102.454 78.0897L102.453 78.0914L102.875 78.3594ZM33.2656 27.4531L33.6044 27.8208L33.6046 27.8207L33.2656 27.4531ZM20.75 57.9688V58.4688H21.25V57.9688H20.75ZM3.875 57.9688H3.375V58.4688H3.875V57.9688ZM11.8906 29L12.3169 29.2613L12.3182 29.2593L11.8906 29ZM116.094 85.5312L115.694 85.2305L115.694 85.2312L116.094 85.5312ZM90.5 104.094L90.3227 103.626L88.9001 104.166L90.3654 104.575L90.5 104.094ZM119.469 122.516L119.069 122.816L119.071 122.818L119.469 122.516ZM32.7031 204.5L32.4862 204.951L32.4878 204.951L32.7031 204.5ZM9.07812 184.109L8.6546 184.375L8.65798 184.38L9.07812 184.109ZM0.78125 153.453V152.953H0.28125V153.453H0.78125ZM17.6562 153.453H18.1562V152.953H17.6562V153.453ZM31.2969 185.375L30.9609 185.745L30.963 185.747L31.2969 185.375ZM100.203 186.5L100.541 186.868L100.542 186.868L100.203 186.5ZM99.2188 122.656L98.8999 123.041L98.9019 123.043L99.2188 122.656ZM43.6719 111.828H43.1719V112.328H43.6719V111.828ZM43.6719 97.9844H61.1094V96.9844H43.6719V97.9844ZM61.1094 97.9844C70.8236 97.9844 79.3361 96.2867 86.6336 92.8748L86.2101 91.9689C79.0702 95.3071 70.7077 96.9844 61.1094 96.9844V97.9844ZM86.6384 92.8725C93.929 89.3693 99.4901 84.6235 103.297 78.6274L102.453 78.0914C98.7599 83.9078 93.3523 88.5369 86.2053 91.9712L86.6384 92.8725ZM103.296 78.6291C107.196 72.5412 109.141 65.5552 109.141 57.6875H108.141C108.141 65.3823 106.241 72.1775 102.454 78.0897L103.296 78.6291ZM109.141 57.6875C109.141 44.4653 105.407 34.0595 97.8848 26.5371L97.1777 27.2442C104.468 34.5343 108.141 44.6597 108.141 57.6875H109.141ZM97.8848 26.5371C90.3574 19.0096 79.5724 15.2812 65.6094 15.2812V16.2812C79.3964 16.2812 89.8926 19.9591 97.1777 27.2442L97.8848 26.5371ZM65.6094 15.2812C52.3781 15.2812 41.4698 19.2069 32.9267 27.0856L33.6046 27.8207C41.9365 20.1369 52.5906 16.2812 65.6094 16.2812V15.2812ZM32.9268 27.0854C24.4679 34.8791 20.25 45.1907 20.25 57.9688H21.25C21.25 45.4343 25.3759 35.4022 33.6044 27.8208L32.9268 27.0854ZM20.75 57.4688H3.875V58.4688H20.75V57.4688ZM4.375 57.9688C4.375 47.4637 7.02316 37.8985 12.3169 29.2613L11.4643 28.7387C6.07059 37.539 3.375 47.2863 3.375 57.9688H4.375ZM12.3182 29.2593C17.6119 20.5292 24.947 13.7961 34.3347 9.0557L33.884 8.16305C24.3343 12.9852 16.8569 19.8458 11.4631 28.7407L12.3182 29.2593ZM34.3347 9.0557C43.7277 4.31275 54.1495 1.9375 65.6094 1.9375V0.9375C54.0068 0.9375 43.4286 3.3435 33.884 8.16305L34.3347 9.0557ZM65.6094 1.9375C84.0788 1.9375 98.5684 6.97232 109.141 16.988L109.828 16.262C99.0253 6.02768 84.2649 0.9375 65.6094 0.9375V1.9375ZM109.141 16.988C119.709 27.0002 125.016 40.733 125.016 58.25H126.016C126.016 40.517 120.635 26.4998 109.828 16.262L109.141 16.988ZM125.016 58.25C125.016 67.9784 121.915 76.9678 115.694 85.2305L116.493 85.832C122.835 77.4072 126.016 68.2091 126.016 58.25H125.016ZM115.694 85.2312C109.57 93.3961 101.121 99.5304 90.3227 103.626L90.6773 104.561C101.629 100.407 110.242 94.1664 116.494 85.8313L115.694 85.2312ZM90.3654 104.575C103.033 108.115 112.586 114.203 119.069 122.816L119.868 122.215C113.227 113.391 103.467 107.198 90.6346 103.612L90.3654 104.575ZM119.071 122.818C125.56 131.347 128.812 141.55 128.812 153.453H129.812C129.812 141.356 126.503 130.934 119.867 122.213L119.071 122.818ZM128.812 153.453C128.812 170.864 123.139 184.835 111.815 195.416L112.498 196.147C124.049 185.353 129.812 171.105 129.812 153.453H128.812ZM111.815 195.416C100.49 205.999 85.3404 211.312 66.3125 211.312V212.312C85.5346 212.312 100.948 206.939 112.498 196.147L111.815 195.416ZM66.3125 211.312C54.1937 211.312 43.0649 208.889 32.9184 204.049L32.4878 204.951C42.7789 209.861 54.0563 212.312 66.3125 212.312V211.312ZM32.92 204.049C22.8709 199.211 15.0692 192.473 9.49827 183.838L8.65798 184.38C14.337 193.183 22.2854 200.039 32.4862 204.951L32.92 204.049ZM9.50162 183.844C4.02608 175.12 1.28125 164.995 1.28125 153.453H0.28125C0.28125 165.161 3.06767 175.474 8.65463 184.375L9.50162 183.844ZM0.78125 153.953H17.6562V152.953H0.78125V153.953ZM17.1562 153.453C17.1562 166.616 21.7557 177.394 30.9609 185.745L31.6328 185.005C22.6506 176.856 18.1562 166.353 18.1562 153.453H17.1562ZM30.963 185.747C40.1635 193.999 51.9611 198.109 66.3125 198.109V197.109C52.1639 197.109 40.6177 193.063 31.6307 185.003L30.963 185.747ZM66.3125 198.109C80.9271 198.109 92.3598 194.384 100.541 186.868L99.8649 186.132C91.9214 193.429 80.7604 197.109 66.3125 197.109V198.109ZM100.542 186.868C108.828 179.249 112.938 168.27 112.938 154.016H111.938C111.938 168.073 107.891 178.751 99.8647 186.132L100.542 186.868ZM112.938 154.016C112.938 140.212 108.488 129.602 99.5356 122.269L98.9019 123.043C107.575 130.148 111.938 140.445 111.938 154.016H112.938ZM99.5376 122.271C90.6935 114.949 77.6691 111.328 60.5469 111.328V112.328C77.5497 112.328 90.3065 115.926 98.8999 123.041L99.5376 122.271ZM60.5469 111.328H43.6719V112.328H60.5469V111.328ZM44.1719 111.828V97.4844H43.1719V111.828H44.1719Z" fill="#AF31DB"/>
</svg>
