<svg width="148" height="207" viewBox="0 0 148 207" fill="none" xmlns="http://www.w3.org/2000/svg">
<path opacity="0.5" d="M114.625 140.047H114.125V140.547H114.625V140.047ZM146.547 140.047H147.047V139.547H146.547V140.047ZM146.547 154.25V154.75H147.047V154.25H146.547ZM114.625 154.25V153.75H114.125V154.25H114.625ZM114.625 206V206.5H115.125V206H114.625ZM97.75 206H97.25V206.5H97.75V206ZM97.75 154.25H98.25V153.75H97.75V154.25ZM1.42188 154.25H0.921875V154.75H1.42188V154.25ZM1.42188 144.688L1.00472 144.412L0.921875 144.537V144.688H1.42188ZM96.2031 1.25V0.75H95.9342L95.786 0.974351L96.2031 1.25ZM114.625 1.25H115.125V0.75H114.625V1.25ZM22.0938 140.047L21.6756 139.773L21.1682 140.547H22.0938V140.047ZM97.75 140.047V140.547H98.25V140.047H97.75ZM97.75 23.0469H98.25V21.1773L97.3167 22.7973L97.75 23.0469ZM90.2969 35.9844L90.7151 36.2585L90.7229 36.2464L90.7301 36.234L90.2969 35.9844ZM114.625 140.547H146.547V139.547H114.625V140.547ZM146.047 140.047V154.25H147.047V140.047H146.047ZM146.547 153.75H114.625V154.75H146.547V153.75ZM114.125 154.25V206H115.125V154.25H114.125ZM114.625 205.5H97.75V206.5H114.625V205.5ZM98.25 206V154.25H97.25V206H98.25ZM97.75 153.75H1.42188V154.75H97.75V153.75ZM1.92188 154.25V144.688H0.921875V154.25H1.92188ZM1.83903 144.963L96.6203 1.52565L95.786 0.974351L1.00472 144.412L1.83903 144.963ZM96.2031 1.75H114.625V0.75H96.2031V1.75ZM114.125 1.25V140.047H115.125V1.25H114.125ZM22.0938 140.547H97.75V139.547H22.0938V140.547ZM98.25 140.047V23.0469H97.25V140.047H98.25ZM97.3167 22.7973L89.8636 35.7348L90.7301 36.234L98.1833 23.2965L97.3167 22.7973ZM89.8787 35.7103L21.6756 139.773L22.5119 140.321L90.7151 36.2585L89.8787 35.7103Z" fill="#AF31DB"/>
</svg>
