<svg width="125" height="210" viewBox="0 0 125 210" fill="none" xmlns="http://www.w3.org/2000/svg">
<path opacity="0.5" d="M7.65625 101.094L7.15873 101.044L7.1171 101.46L7.51956 101.575L7.65625 101.094ZM17.6406 1.25V0.75H17.1881L17.1431 1.20025L17.6406 1.25ZM120.016 1.25H120.516V0.75H120.016V1.25ZM120.016 16.8594V17.3594H120.516V16.8594H120.016ZM32.125 16.8594V16.3594H31.6741L31.6277 16.8078L32.125 16.8594ZM24.9531 86.0469L24.4558 85.9953L24.3445 87.0687L25.2353 86.4596L24.9531 86.0469ZM19.6094 193.906L19.2752 194.278L19.6094 193.906ZM0.625 152.141V151.641H0.0785217L0.126968 152.185L0.625 152.141ZM16.7969 152.141L17.2937 152.084L17.2431 151.641H16.7969V152.141ZM31 183.922L30.6621 184.29L30.6645 184.293L31 183.922ZM95.9688 180.688L95.5798 180.373L95.5779 180.376L95.9688 180.688ZM39.7188 93.2188L39.8769 93.6931L39.8836 93.6908L39.7188 93.2188ZM21.0156 104.891L20.8789 105.372L21.1422 105.446L21.3471 105.265L21.0156 104.891ZM8.15377 101.144L18.1381 1.29975L17.1431 1.20025L7.15873 101.044L8.15377 101.144ZM17.6406 1.75H120.016V0.75H17.6406V1.75ZM119.516 1.25V16.8594H120.516V1.25H119.516ZM120.016 16.3594H32.125V17.3594H120.016V16.3594ZM31.6277 16.8078L24.4558 85.9953L25.4505 86.0984L32.6223 16.9109L31.6277 16.8078ZM25.2353 86.4596C36.1121 79.0225 48.855 75.2969 63.4844 75.2969V74.2969C48.6762 74.2969 35.7317 78.0712 24.6709 85.6341L25.2353 86.4596ZM63.4844 75.2969C81.8338 75.2969 96.4109 81.2524 107.272 93.1342L108.01 92.4595C96.9329 80.3413 82.0724 74.2969 63.4844 74.2969V75.2969ZM107.272 93.1342C118.138 105.022 123.594 120.876 123.594 140.75H124.594C124.594 120.686 119.081 104.572 108.01 92.4595L107.272 93.1342ZM123.594 140.75C123.594 162.233 118.271 178.832 107.69 190.619L108.435 191.287C119.229 179.261 124.594 162.392 124.594 140.75H123.594ZM107.69 190.619C97.1177 202.398 82.219 208.312 62.9219 208.312V209.312C82.4373 209.312 97.6323 203.321 108.435 191.287L107.69 190.619ZM62.9219 208.312C45.207 208.312 30.8968 203.374 19.9435 193.534L19.2752 194.278C30.447 204.314 45.0117 209.312 62.9219 209.312V208.312ZM19.9435 193.534C8.99402 183.698 2.70804 169.904 1.12303 152.096L0.126968 152.185C1.72946 170.189 8.09973 184.239 19.2752 194.278L19.9435 193.534ZM0.625 152.641H16.7969V151.641H0.625V152.641ZM16.3001 152.197C17.9031 166.247 22.6734 176.967 30.6621 184.29L31.3379 183.553C23.5766 176.439 18.8781 165.971 17.2937 152.084L16.3001 152.197ZM30.6645 184.293C38.6537 191.521 49.4254 195.109 62.9219 195.109V194.109C49.6059 194.109 39.0963 190.573 31.3355 183.551L30.6645 184.293ZM62.9219 195.109C77.6601 195.109 88.8366 190.427 96.3596 180.999L95.5779 180.376C88.2884 189.511 77.4336 194.109 62.9219 194.109V195.109ZM96.3576 181.002C103.955 171.6 107.719 158.253 107.719 141.031H106.719C106.719 158.122 102.982 171.213 95.5799 180.373L96.3576 181.002ZM107.719 141.031C107.719 125.934 103.517 113.574 95.0783 103.998L94.328 104.659C102.577 114.019 106.719 126.129 106.719 141.031H107.719ZM95.0783 103.998C86.6254 94.405 75.0894 89.625 60.5312 89.625V90.625C74.8481 90.625 86.0933 95.3137 94.328 104.659L95.0783 103.998ZM60.5312 89.625C52.521 89.625 45.5254 90.6614 39.5539 92.7467L39.8836 93.6908C45.7246 91.6511 52.604 90.625 60.5312 90.625V89.625ZM39.5606 92.7444C33.57 94.7413 27.278 98.6761 20.6841 104.516L21.3471 105.265C27.8783 99.4802 34.055 95.6337 39.8769 93.6931L39.5606 92.7444ZM21.1523 104.41L7.79294 100.613L7.51956 101.575L20.8789 105.372L21.1523 104.41Z" fill="#AF31DB"/>
</svg>
