<svg width="40" height="38" viewBox="0 0 40 38" fill="none" xmlns="http://www.w3.org/2000/svg">
<g clip-path="url(#clip0)">
<path d="M22.4168 22.9014V20.2547C22.4168 19.2111 21.506 18.3621 20.3865 18.3621C19.2671 18.3621 18.3563 19.2111 18.3563 20.2547V22.6443C18.3563 25.524 17.2183 28.2888 15.1516 30.4293L12.3023 33.3806C12.0629 33.6286 12.0845 34.0105 12.3505 34.2338C12.6164 34.4569 13.0261 34.4368 13.2656 34.1888L16.1149 31.2375C18.396 28.8747 19.6522 25.823 19.6522 22.6443V20.2547C19.6522 19.8772 19.9816 19.5701 20.3865 19.5701C20.7915 19.5701 21.1209 19.8772 21.1209 20.2547V22.9014C21.1209 26.4452 19.7126 29.8409 17.1554 32.4632L14.3779 35.3112C14.1372 35.558 14.1567 35.9402 14.4215 36.1645C14.5457 36.2698 14.7016 36.3216 14.8571 36.3216C15.0334 36.3216 15.2089 36.255 15.3368 36.1239L18.1141 33.2758C20.8887 30.4307 22.4168 26.7463 22.4168 22.9014Z" fill="white" fill-opacity="0.46"/>
<path d="M25.1813 20.2547C25.1813 17.79 23.0304 15.7849 20.3865 15.7849C17.7426 15.7849 15.5917 17.79 15.5917 20.2547V22.6443C15.5917 24.8864 14.7057 27.0388 13.0968 28.7053L11.0711 30.8035C10.8317 31.0515 10.8533 31.4334 11.1193 31.6566C11.3853 31.8798 11.7949 31.8595 12.0344 31.6117L14.0601 29.5135C15.8835 27.6248 16.8877 25.1853 16.8877 22.6443V20.2547C16.8877 18.4561 18.4573 16.993 20.3866 16.993C22.3159 16.993 23.8855 18.4561 23.8855 20.2547V22.9014C23.8855 27.0876 22.222 31.0991 19.201 34.1967L16.8576 36.5998C16.6169 36.8466 16.6364 37.2287 16.9012 37.4531C17.0253 37.5584 17.1813 37.6101 17.3368 37.6101C17.513 37.6101 17.6886 37.5435 17.8164 37.4124L20.1599 35.0093C23.398 31.6888 25.1813 27.3889 25.1813 22.9014V20.2547V20.2547Z" fill="white" fill-opacity="0.46"/>
<path d="M27.9461 20.2547C27.9461 16.369 24.555 13.2078 20.3867 13.2078C16.2184 13.2078 12.8273 16.369 12.8273 20.2547V22.6443C12.8273 24.2486 12.1933 25.7888 11.042 26.9813L9.21808 28.8705C8.97869 29.1184 9.00029 29.5003 9.26629 29.7236C9.53221 29.9468 9.94197 29.9265 10.1814 29.6786L12.0053 27.7894C13.3711 26.3748 14.1232 24.5475 14.1232 22.6443V20.2547C14.1232 17.0351 16.933 14.4158 20.3867 14.4158C23.8405 14.4158 26.6502 17.0351 26.6502 20.2547V22.9014C26.6502 27.7302 24.7313 32.3573 21.2468 35.9303L20.5982 36.5953C20.3575 36.8422 20.377 37.2242 20.6418 37.4486C20.766 37.5538 20.922 37.6056 21.0774 37.6056C21.2537 37.6056 21.4292 37.539 21.5571 37.4079L22.2056 36.7429C25.9073 32.947 27.946 28.0314 27.946 22.9014V20.2547H27.9461Z" fill="white" fill-opacity="0.46"/>
<path d="M10.0625 20.2547C10.0625 20.5883 10.3526 20.8587 10.7104 20.8587C11.0683 20.8587 11.3584 20.5883 11.3584 20.2547C11.3584 18.2207 12.1505 16.256 13.589 14.7222C15.014 13.2028 16.9699 12.2091 19.0962 11.9243C19.4504 11.8769 19.6963 11.5707 19.6454 11.2406C19.5945 10.9104 19.2658 10.6815 18.9119 10.7286C16.4791 11.0545 14.2422 12.1903 12.6133 13.9272C10.9684 15.681 10.0625 17.9282 10.0625 20.2547Z" fill="white" fill-opacity="0.46"/>
<path d="M11.3586 22.6443C11.3586 22.3106 11.0685 22.0403 10.7106 22.0403C10.3528 22.0403 10.0627 22.3106 10.0627 22.6443C10.0627 23.6109 9.68075 24.5387 8.98719 25.2571L7.36481 26.9377C7.12542 27.1856 7.14701 27.5675 7.41302 27.7907C7.53691 27.8946 7.69181 27.9457 7.84628 27.9457C8.02356 27.9457 8.20023 27.8782 8.32809 27.7458L9.95047 26.0653C10.8585 25.1247 11.3586 23.9098 11.3586 22.6443Z" fill="white" fill-opacity="0.46"/>
<path d="M29.4389 28.0363C29.0925 27.9522 28.7386 28.1451 28.6479 28.4677C28.4087 29.3197 28.1112 30.1667 27.7633 30.9851C27.6314 31.2953 27.7943 31.6463 28.127 31.7691C28.2053 31.798 28.286 31.8117 28.3655 31.8117C28.6234 31.8117 28.8673 31.6672 28.9681 31.4301C29.3352 30.5663 29.6492 29.6726 29.9017 28.7735C29.9922 28.4509 29.785 28.1208 29.4389 28.0363Z" fill="white" fill-opacity="0.46"/>
<path d="M27.2821 13.0976C27.0159 12.8744 26.6062 12.8949 26.367 13.1429C26.1278 13.391 26.1496 13.7729 26.4157 13.9959C28.3216 15.5931 29.4146 17.8743 29.4146 20.2547V22.9014C29.4146 23.9059 29.3403 24.9182 29.1937 25.9101C29.1449 26.2407 29.3927 26.5454 29.7472 26.5909C29.7771 26.5948 29.8069 26.5966 29.8364 26.5966C30.155 26.5966 30.4328 26.3774 30.4774 26.0749C30.6321 25.0285 30.7105 23.9608 30.7105 22.9013V20.2547C30.7106 17.5321 29.4609 14.9235 27.2821 13.0976Z" fill="white" fill-opacity="0.46"/>
<path d="M24.253 12.6501C24.3429 12.6901 24.4377 12.7089 24.5311 12.7089C24.7732 12.7089 25.0055 12.5818 25.1165 12.3644C25.2704 12.0633 25.1331 11.7028 24.8101 11.5594C23.8765 11.1451 22.8843 10.8655 21.861 10.7286C21.5063 10.6814 21.1784 10.9104 21.1275 11.2405C21.0766 11.5706 21.3225 11.8768 21.6767 11.9243C22.5707 12.044 23.4374 12.2882 24.253 12.6501Z" fill="white" fill-opacity="0.46"/>
<path d="M20.3866 8.05347C20.1442 8.05347 19.899 8.05975 19.6577 8.07215C19.3004 8.09051 19.0267 8.37545 19.0464 8.70847C19.0662 9.04156 19.3715 9.29807 19.7291 9.27826C19.9467 9.26706 20.1679 9.26143 20.3865 9.26143C26.889 9.26143 32.1792 14.1929 32.1792 20.2546V22.9013C32.1792 23.235 32.4693 23.5053 32.8271 23.5053C33.185 23.5053 33.4751 23.235 33.4751 22.9013V20.2547C33.4752 13.5269 27.6036 8.05347 20.3866 8.05347Z" fill="white" fill-opacity="0.46"/>
<path d="M13.3021 11.3307C13.4297 11.3307 13.5587 11.2956 13.6715 11.2226C14.7495 10.5238 15.9334 10.0021 17.1905 9.67162C17.535 9.5811 17.7355 9.24736 17.6384 8.92634C17.5413 8.60532 17.1832 8.41864 16.8389 8.50884C15.4428 8.87576 14.1282 9.45506 12.9317 10.2306C12.6379 10.4211 12.5653 10.7975 12.7696 11.0713C12.8955 11.2403 13.0971 11.3307 13.3021 11.3307Z" fill="white" fill-opacity="0.46"/>
<path d="M8.59401 22.6443V20.2546C8.59401 17.4447 9.73552 14.7687 11.8083 12.7193C12.0537 12.4766 12.0417 12.0943 11.7813 11.8655C11.5209 11.6366 11.1108 11.6479 10.8654 11.8906C8.56498 14.165 7.29812 17.1355 7.29812 20.2546V22.6443C7.29812 22.9731 7.16818 23.2887 6.93233 23.533L6.13337 24.3605C5.89397 24.6085 5.91557 24.9904 6.18157 25.2136C6.30537 25.3175 6.46036 25.3687 6.61483 25.3687C6.79211 25.3687 6.9687 25.3013 7.09665 25.1688L7.89561 24.3413C8.34598 23.8746 8.59401 23.272 8.59401 22.6443Z" fill="white" fill-opacity="0.46"/>
<path d="M35.4168 15.5517C34.7061 13.5829 33.5767 11.8043 32.0599 10.2652C31.8177 10.0195 31.4079 10.0033 31.1444 10.229C30.8809 10.4547 30.8635 10.8368 31.1056 11.0825C32.4989 12.4962 33.5362 14.1295 34.1886 15.9369C34.2797 16.1892 34.5321 16.3484 34.8026 16.3484C34.8711 16.3484 34.9408 16.3382 35.0093 16.3167C35.3484 16.2103 35.5309 15.8678 35.4168 15.5517Z" fill="white" fill-opacity="0.46"/>
<path d="M25.5073 6.26732C25.1689 6.15932 24.8003 6.32756 24.6845 6.64326C24.5686 6.95888 24.7492 7.30229 25.0878 7.41021C26.5165 7.86596 27.858 8.5262 29.0748 9.37279C29.1912 9.45373 29.3271 9.49271 29.4619 9.49271C29.6594 9.49271 29.8544 9.40887 29.9817 9.24989C30.1958 8.98259 30.1367 8.60407 29.8499 8.40459C28.5249 7.48293 27.0638 6.76375 25.5073 6.26732Z" fill="white" fill-opacity="0.46"/>
<path d="M10.3189 10.4621C13.0445 8.026 16.62 6.68436 20.3866 6.68436C21.0861 6.68436 21.7894 6.73131 22.477 6.82376C22.8315 6.87192 23.1598 6.6424 23.2109 6.3122C23.262 5.982 23.0164 5.67581 22.6622 5.62813C21.9134 5.52746 21.1477 5.47632 20.3866 5.47632C16.2841 5.47632 12.3901 6.93732 9.42205 9.59017C6.46326 12.2348 4.73289 15.7838 4.54974 19.5834C4.53367 19.9166 4.81047 20.199 5.16788 20.2139C5.17782 20.2144 5.18766 20.2145 5.19751 20.2145C5.54196 20.2145 5.8287 19.9617 5.84434 19.6377C6.01237 16.1495 7.60149 12.8909 10.3189 10.4621Z" fill="white" fill-opacity="0.46"/>
<path d="M20.3867 2.89917C18.9377 2.89917 17.4938 3.05573 16.0952 3.36451C15.747 3.44134 15.5316 3.76686 15.614 4.09142C15.6965 4.41598 16.0457 4.61684 16.3939 4.53993C17.6948 4.2529 19.0381 4.10721 20.3867 4.10721C25.138 4.10721 29.5731 5.87183 32.8748 9.07587C33.0021 9.19933 33.1719 9.26151 33.3422 9.26151C33.5037 9.26151 33.6654 9.20562 33.791 9.09311C34.0491 8.86197 34.0574 8.47958 33.8094 8.2391C32.0891 6.56968 30.0683 5.25638 27.8032 4.33593C25.4571 3.38255 22.9618 2.89917 20.3867 2.89917Z" fill="white" fill-opacity="0.46"/>
<path d="M5.832 10.4216C5.95053 10.5081 6.09126 10.55 6.23104 10.55C6.42344 10.55 6.61385 10.4706 6.74163 10.3184C8.58828 8.11963 11.0194 6.39495 13.772 5.33067C14.1026 5.20286 14.2595 4.84947 14.1224 4.54134C13.9853 4.23321 13.606 4.08679 13.2756 4.21476C10.3174 5.35845 7.70517 7.2115 5.72133 9.57354C5.50068 9.83633 5.55027 10.216 5.832 10.4216Z" fill="white" fill-opacity="0.46"/>
<path d="M11.4024 3.44078C11.497 3.44078 11.5929 3.42145 11.6836 3.38053C14.4118 2.1526 17.3399 1.53006 20.3867 1.53006C21.9744 1.53006 23.5558 1.70418 25.0866 2.04758C25.4343 2.12538 25.7844 1.92598 25.8681 1.60166C25.9518 1.27734 25.7376 0.951088 25.3897 0.873048C23.7598 0.507415 22.0765 0.322021 20.3867 0.322021C17.1432 0.322021 14.0255 0.984993 11.1203 2.29266C10.798 2.4377 10.6629 2.79882 10.8185 3.09922C10.9302 3.31498 11.1616 3.44078 11.4024 3.44078Z" fill="white" fill-opacity="0.46"/>
<path d="M27.7947 2.84945C28.4627 3.09742 29.1238 3.38252 29.7598 3.69669C29.8564 3.74452 29.9603 3.76716 30.0626 3.76716C30.2948 3.76716 30.5193 3.65046 30.6356 3.44582C30.8031 3.15106 30.6827 2.7855 30.3665 2.62926C29.6894 2.2948 28.9854 1.99126 28.2741 1.72718C27.9415 1.60372 27.5648 1.75497 27.4323 2.06479C27.3 2.37469 27.4622 2.72607 27.7947 2.84945Z" fill="white" fill-opacity="0.46"/>
</g>
<defs>
<clipPath id="clip0">
<rect y="0.322021" width="40" height="37.2881" rx="5" fill="white"/>
</clipPath>
</defs>
</svg>
